<?xml version="1.0" encoding="utf-8"?>
<!-- Generator: Adobe Illustrator 23.0.3, SVG Export Plug-In . SVG Version: 6.00 Build 0)  -->
<svg version="1.1" id="Layer_1" xmlns="http://www.w3.org/2000/svg" xmlns:xlink="http://www.w3.org/1999/xlink" x="0px" y="0px"
	 viewBox="0 0 69.6 69.6" style="enable-background:new 0 0 69.6 69.6;" xml:space="preserve">
<style type="text/css">
	.st0{fill:#28B0EE;}
	.st1{fill:#00A25F;}
	.st2{fill:#BBAA7C;}
	.st3{fill:#010101;}
	.st4{fill:#020202;}
	.st5{fill:#3ACE01;}
	.st6{fill:#040404;}
	.st7{fill:#050505;}
	.st8{fill:#00B3F6;}
	.st9{fill:#0456B8;}
	.st10{fill:#0354BD;}
	.st11{fill:#9FDA55;}
	.st12{fill:#FFAA0C;}
	.st13{fill:#E81D52;}
	.st14{fill:#FF563B;}
	.st15{fill:#F50028;}
	.st16{fill:#FFA116;}
	.st17{fill:url(#SVGID_1_);}
	.st18{fill:url(#SVGID_2_);}
	.st19{fill:url(#SVGID_3_);}
	.st20{fill:url(#SVGID_4_);}
	.st21{fill:url(#SVGID_5_);}
	.st22{fill:url(#SVGID_6_);}
	.st23{fill:url(#SVGID_7_);}
	.st24{fill:url(#SVGID_8_);}
	.st25{fill:url(#SVGID_9_);}
</style>
<g>
	<path d="M62.6,5.8C43.2,13.4,23.9,21.2,4.5,28.8c-1.4,0.6-2.8,1.2-2.8,2.9c0,1.9,1.5,2.5,3,3c4.2,1.6,8.4,3.3,12.7,4.8
		c1.4,0.5,2,1.2,2.3,2.6c1.1,4.7,2.4,9.4,3.7,14.1c0.8,3,2.4,3.5,4.9,1.8c2-1.4,4.1-2.8,6-4.4c1.6-1.4,2.7-1.3,4.4-0.1
		c4.3,3.1,8.7,6,13.1,9c3.1,2.1,4.7,1.4,5.5-2.3c0.1-0.3,0.1-0.7,0.2-1c2.2-11.3,4.3-22.6,6.5-33.9C65,19.6,66.1,13.8,67.2,8
		C67.2,5.6,65.4,4.7,62.6,5.8z M15.9,33.5c-1.4-0.4-2.7-1-4.6-1.8c13.9-5.5,27.4-10.9,40.9-16.3c0.1,0.1,0.1,0.2,0.2,0.4
		C43.3,24.6,34.3,33.3,25.2,42C24.7,36.4,20.3,34.9,15.9,33.5z M26.4,47.6c-0.2-0.7-0.3-1.4-0.6-2.6c2.2,1.5,4.1,2.8,6,4
		C27.7,52.4,27.7,52.4,26.4,47.6z M52.6,56.9c-7-4.7-13.7-9.3-20.7-14c9.5-9.1,18.9-18.2,28.6-27.6C57.8,29.4,55.2,42.9,52.6,56.9z"
		/>
</g>
</svg>
